<svg xmlns="http://www.w3.org/2000/svg" viewBox="0 0 488 467.67"><title>avatar_git</title><g id="Layer_2" data-name="Layer 2"><g id="Bold"><path d="M244,0C109.19,0,0,107.36,0,239.77c0,106,69.91,195.81,166.83,227.49,12.21,2.26,16.68-5.16,16.68-11.53,0-5.69-.21-20.78-.31-40.77C115.33,429.42,101,382.8,101,382.8c-11.11-27.68-27.15-35.08-27.15-35.08-22.1-14.86,1.71-14.56,1.71-14.56,24.5,1.67,37.37,24.71,37.37,24.71,21.76,36.66,57.12,26.06,71.07,19.94,2.19-15.51,8.48-26.06,15.45-32.06-54.19-6-111.14-26.62-111.14-118.48,0-26.17,9.45-47.56,25.11-64.34-2.75-6.06-11-30.44,2.13-63.46,0,0,20.44-6.42,67.1,24.58a234,234,0,0,1,122,0c46.36-31,66.8-24.58,66.8-24.58,13.11,33,4.88,57.4,2.44,63.46,15.55,16.78,25,38.17,25,64.34,0,92.11-57,112.38-111.33,118.27,8.54,7.2,16.47,21.9,16.47,44.37,0,32.09-.3,57.87-.3,65.66,0,6.28,4.27,13.78,16.77,11.39C418.15,435.48,488,345.57,488,239.77,488,107.36,378.75,0,244,0Z"/></g></g></svg>