<svg xmlns="http://www.w3.org/2000/svg" viewBox="0 0 496 475.32"><defs><style>.cls-1{fill:#fff;}</style></defs><title>ic_star_full_white</title><g id="Layer_2" data-name="Layer 2"><g id="Layer_1-2" data-name="Layer 1"><path class="cls-1" d="M494.7,179.6A26.31,26.31,0,0,0,472,161.49l-143.18-13L272.26,16a26.37,26.37,0,0,0-48.5,0L167.17,148.49,24,161.49A26.4,26.4,0,0,0,9,207.62l108.23,94.9L85.31,443.08a26.36,26.36,0,0,0,39.23,28.5L248,397.76l123.44,73.82a26.38,26.38,0,0,0,39.25-28.5L378.78,302.52,487,207.62A26.38,26.38,0,0,0,494.7,179.6Z"/></g></g></svg>